# Blender v2.79 (sub 0) OBJ File: 'diamond.blend'
# www.blender.org
mtllib diamond.mtl
#o Cube
v -0.384175 -0.262450 -0.159097
v -0.384175 -0.262450 0.206310
v -0.967515 2.954511 0.739652
v -0.967515 2.954510 -0.718787
v -0.018771 -0.263914 -0.159097
v -0.018771 -0.263914 0.206310
v 0.490912 2.948669 0.739652
v 0.490912 2.948669 -0.718787
v -1.624580 2.245133 -1.373006
v -1.624581 2.245134 1.393871
v 1.142275 2.234051 -1.373005
v 1.142274 2.234052 1.393872
vn -0.7336 0.6795 -0.0000
vn 0.7391 0.6736 0.0000
vn -0.0040 -1.0000 0.0000
vn 0.0027 0.6766 0.7364
vn 0.0040 1.0000 -0.0000
vn 0.0027 0.6766 -0.7364
vn -0.0017 -0.4364 -0.8997
vn -0.0017 -0.4287 0.9034
vn 0.9068 -0.4215 0.0000
vn -0.8963 -0.4434 -0.0000
usemtl Material
s off
f 9//1 10//1 3//1 4//1
f 11//2 8//2 7//2 12//2
f 1//3 5//3 6//3 2//3
f 10//4 12//4 7//4 3//4
f 3//5 7//5 8//5 4//5
f 11//6 9//6 4//6 8//6
f 5//7 1//7 9//7 11//7
f 2//8 6//8 12//8 10//8
f 5//9 11//9 12//9 6//9
f 1//10 2//10 10//10 9//10
